<?xml version="1.0" encoding="utf-8"?>
<!-- Generator: Adobe Illustrator 15.1.0, SVG Export Plug-In . SVG Version: 6.00 Build 0)  -->
<!DOCTYPE svg PUBLIC "-//W3C//DTD SVG 1.1//EN" "http://www.w3.org/Graphics/SVG/1.1/DTD/svg11.dtd">
<svg version="1.1" id="Layer_1" xmlns="http://www.w3.org/2000/svg" xmlns:xlink="http://www.w3.org/1999/xlink" x="0px" y="0px"
	 width="420px" height="57.051px" viewBox="0 0 420 57.051" enable-background="new 0 0 420 57.051" xml:space="preserve">
<path fill="#4D4D4D" d="M94.651,22.416c0,13.204-8.701,21.354-22.084,21.354c-13.384,0-22.084-8.15-22.084-21.354
	C50.482,9.213,59.183,1,72.567,1C85.95,1,94.651,9.214,94.651,22.416z M63.684,22.416c0,10.647,2.8,15.695,8.882,15.695
	c6.083,0,8.882-5.048,8.882-15.695c0-10.646-2.799-15.757-8.882-15.757C66.483,6.658,63.684,11.769,63.684,22.416z"/>
<path fill="#4D4D4D" d="M121.239,42.552v-4.683h-0.121c-2.677,3.895-5.537,5.596-10.466,5.596c-6.934,0-9.247-2.978-9.247-9.552
	V21.565c0-1.704-0.426-2.617-2.19-2.617h-2.007v-4.867h14.299v17.947c0,4.321,0,5.962,4.683,5.962c2.799,0,4.564-2.618,4.564-5.17
	V21.562c0-1.702-0.427-2.616-2.19-2.616h-2.676v-4.865h14.964v20.987c0,1.704,0.426,2.617,2.19,2.617h2.19v4.864h-13.994V42.552z"/>
<path fill="#4D4D4D" d="M148.494,2.765v11.317h7.484v4.865h-7.484v16.734c0,1.276,0.67,2.31,2.068,2.31
	c2.313,0,2.922-1.641,2.922-4.442v-4.746h4.867v5.414c0,5.963-2.92,9.249-10.221,9.249c-6.267,0-9.735-3.044-9.735-9.249V18.945
	h-4.076V14.08c6.083,0,7.666-6.267,8.152-11.316L148.494,2.765L148.494,2.765z"/>
<path fill="#4D4D4D" d="M204.245,28.316c0,9.735-6.632,15.148-15.697,15.148c-9.065,0-15.695-5.413-15.695-15.148
	c0-9.734,6.63-15.149,15.695-15.149C197.613,13.167,204.245,18.583,204.245,28.316z M183.618,28.316c0,7.18,1.28,10.281,4.93,10.281
	c3.651,0,4.929-3.102,4.929-10.281c0-7.178-1.277-10.283-4.929-10.283C184.897,18.035,183.618,21.138,183.618,28.316z"/>
<path fill="#4D4D4D" d="M210.856,14.81v-1.458c0-8.64,3.712-12.352,11.498-12.352c4.258,0,10.034,1.582,10.034,6.693
	c0,2.312-1.82,4.686-4.193,4.686c-2.312,0-4.259-1.583-4.259-4.016c0-1.582,0.973-2.738,2.43-2.92V5.32
	c-0.729-0.123-1.457-0.304-2.251-0.304c-2.857,0-3.164,2.495-3.164,4.988v4.805h5.111v4.87h-5.111v15.389
	c0,1.704,0.428,2.617,2.19,2.617h2.496v4.866h-19.589v-4.866h2.614c1.764,0,2.19-0.913,2.19-2.617V19.679h-4.503v-4.87H210.856z"/>
<path fill="#4D4D4D" d="M252.633,10.004c0-1.521-0.851-2.433-2.374-2.433h-3.77V2.217h25.489c9.978,0,15.881,3.103,15.881,11.437
	c0,8.334-5.903,11.499-17.096,11.499h-6.692v9.613c0,1.519,0.851,2.433,2.372,2.433h4.076v5.352h-23.97v-5.352h3.709
	c1.523,0,2.374-0.914,2.374-2.433V10.004L252.633,10.004z M264.073,19.8h5.229c4.262,0,7.119-2.312,7.119-6.085
	c0-3.771-2.738-6.144-6.146-6.144h-6.201V19.8L264.073,19.8z"/>
<path fill="#4D4D4D" d="M367.83,29.716c0,4.261,0.974,8.519,6.083,8.519c2.131,0,5.597-1.645,6.147-5.234h7.057
	c-0.977,7.304-8.091,10.465-14.662,10.465c-10.403,0-15.394-5.779-15.394-15.148c0-9.43,6.692-15.149,15.394-15.149
	c9.917,0,15.455,7.059,15.455,16.548H367.83z M377.14,24.848v-1.581c0-3.103-1.645-5.233-4.562-5.233
	c-2.983,0-4.624,2.13-4.624,5.233v1.581H377.14z"/>
<path fill="#4D4D4D" d="M344.877,38.025h-12.348c-0.971,0-3.104-0.321-3.104-1.845c0-0.911,0.608-1.409,1.214-1.589
	c1.95,0.791,4.138,1.121,6.208,1.121c7.544,0,13.993-3.484,13.993-11.457c0-2.188-1.036-4.417-2.13-6.244
	c1.313-1.864,3.311-1.608,3.311-1.608c-1.08,2.655-0.354,5-0.354,5l3.268,1.513c0.652-2.838,2.158-5.397,4.033-7.209
	c-1.672-1.777-3.586-2.236-5.513-2.249c-2.559-0.017-4.81,0.804-6.694,2.446c-2.801-1.643-5.963-2.738-9.25-2.738
	c-6.384,0-13.502,3.407-13.502,10.708c0,4.381,1.277,7.241,4.135,9.247c-3.224,1.281-5.25,2.559-5.25,6.205
	c0,2.676,2.605,4.688,4.605,5.475v0.125c-2,0.425-5.088,1.702-5.088,4.562c0,4.5,6.578,5.961,15.337,5.961
	c9.491,0,17.77-1.87,17.77-9.473C355.519,39.651,350.111,38.025,344.877,38.025z M337.395,16.877c2.676,0,3.526,3.106,3.526,7.606
	c0,4.501-0.851,7.542-3.526,7.542s-3.528-3.041-3.528-7.542C333.866,19.983,334.719,16.878,337.395,16.877z M339.158,51.374
	c-5.109,0-9.187-0.731-9.187-2.492c0-2.131,4.077-2.495,9.187-2.495c5.111,0,9.19,0.364,9.19,2.495
	C348.349,50.643,344.27,51.374,339.158,51.374z"/>
<path fill="#4D4D4D" d="M395.695,32.331c0.486,3.591,4.867,6.267,8.273,6.267c1.764,0,5.175,0,5.175-2.676
	c0-5.113-18.863-2.009-18.863-13.141c0-7.302,7.545-9.613,13.627-9.613c3.226,0,6.632,0.974,9.429,2.555l0.732-1.824h4.198v9.126
	h-4.623c-0.609-1.765-1.704-2.92-3.104-3.773c-1.396-0.852-3.042-1.216-4.807-1.216c-1.399,0-4.682,0.306-4.682,2.374
	c0,5.231,18.857,1.278,18.857,13.139c0,7.364-6.754,9.917-13.021,9.917c-3.771,0-7.541-0.549-10.705-2.739l-0.913,2.071h-4.562
	V32.331H395.695z"/>
<g>
	<path fill="#808080" d="M23.012,1.883V1.832H22.96l-0.399-0.403H0.17V43.87h33.35V12.522L23.012,1.883z M23.012,5.776l6.475,6.566
		h-6.475V5.776z M3.206,40.83V4.462H20.99v9.9h9.494V40.83H3.206z"/>
	<polygon fill="#808080" points="19.373,16.383 14.721,16.383 14.721,20.828 10.275,20.828 10.275,25.077 14.721,25.077 
		14.721,29.524 19.373,29.524 19.373,25.077 23.415,25.077 23.415,20.828 19.373,20.828 	"/>
</g>
<path fill="#4D4D4D" d="M320.421,37.229c-0.984,0.333-1.871,0.516-2.51,0.516c-0.972,0-1.153-0.667-1.153-2.431V23.997
	c0-8.88-4.502-10.83-12.838-10.83c-4.929,0-14.115,0.974-14.115,7.729c0,2.859,2.434,4.502,5.294,4.502
	c2.432,0,4.803-1.156,4.803-3.833c0-2.131-2.004-3.104-3.829-3.347v-0.122c1.458-0.913,3.164-1.155,4.805-1.155
	c3.349,0,5.901,1.337,5.901,5.353c0,7.97-18.067,1.215-18.067,12.716c0,6.204,3.59,8.454,9.369,8.454
	c3.952,0,6.875-1.338,9.369-4.315c0.971,2.917,3.831,4.315,6.749,4.315c3.774,0,6.887-3.251,6.887-3.251L320.421,37.229z
	 M306.658,32.639c0,2.552-0.911,5.106-4.381,5.106c-1.886,0-3.465-0.911-3.465-3.406c0-3.771,4.925-4.136,7.846-5.838V32.639z"/>
</svg>
