<?xml version="1.0" encoding="utf-8"?>
<!-- Generator: Adobe Illustrator 15.1.0, SVG Export Plug-In . SVG Version: 6.00 Build 0)  -->
<!DOCTYPE svg PUBLIC "-//W3C//DTD SVG 1.1//EN" "http://www.w3.org/Graphics/SVG/1.1/DTD/svg11.dtd">
<svg version="1.1" id="Layer_1" xmlns="http://www.w3.org/2000/svg" xmlns:xlink="http://www.w3.org/1999/xlink" x="0px" y="0px"
	 width="600px" height="80px" viewBox="0 0 600 80" enable-background="new 0 0 600 80" xml:space="preserve">
<g>
	<path fill="#C4C0B5" d="M51.194,33.323c0,8.837-2.167,15.556-6.503,20.153c-4.334,4.599-10.682,6.897-19.039,6.897
		c-8.24,0-14.556-2.311-18.951-6.933c-4.396-4.623-6.592-11.353-6.592-20.19c0-8.741,2.186-15.417,6.556-20.028
		c4.371-4.609,10.724-6.915,19.058-6.915c8.358,0,14.693,2.287,19.004,6.861C49.039,17.744,51.194,24.462,51.194,33.323z
		 M15.054,33.323c0,10.154,3.532,15.231,10.598,15.231c3.592,0,6.256-1.233,7.992-3.7c1.737-2.467,2.605-6.311,2.605-11.531
		c0-5.245-0.881-9.119-2.641-11.622c-1.761-2.503-4.389-3.754-7.886-3.754C18.61,17.947,15.054,23.072,15.054,33.323z"/>
	<path fill="#C4C0B5" d="M85.967,59.656l-1.761-5.065H83.38c-1.174,1.868-2.809,3.299-4.903,4.293
		c-2.096,0.993-4.557,1.49-7.383,1.49c-4.479,0-7.964-1.299-10.454-3.897c-2.491-2.599-3.736-6.269-3.736-11.011V18.953H70.95V41.19
		c0,2.658,0.377,4.67,1.132,6.035c0.754,1.365,1.993,2.048,3.718,2.048c2.419,0,4.144-0.952,5.173-2.855
		c1.03-1.904,1.545-5.119,1.545-9.646V18.953h14.047v40.703H85.967z"/>
	<path fill="#C4C0B5" d="M123.091,49.273c1.892,0,4.155-0.467,6.789-1.4v10.238c-1.892,0.814-3.694,1.395-5.406,1.742
		s-3.718,0.521-6.018,0.521c-4.718,0-8.119-1.155-10.202-3.467c-2.084-2.311-3.126-5.861-3.126-10.651V29.479h-4.921v-5.712
		l6.25-4.419l3.629-8.551h9.196v8.155h9.987v10.526h-9.987v15.843C119.282,47.956,120.552,49.273,123.091,49.273z"/>
	<path fill="#C4C0B5" d="M174.986,32.184c0,4.419-1.083,7.777-3.251,10.076c-2.167,2.3-5.341,3.449-9.52,3.449
		c-4.12,0-7.278-1.155-9.476-3.467c-2.197-2.311-3.296-5.676-3.296-10.095c0-4.371,1.093-7.709,3.278-10.014
		c2.186-2.306,5.361-3.458,9.529-3.458c4.179,0,7.346,1.144,9.502,3.431C173.909,24.394,174.986,27.753,174.986,32.184z
		 M156.917,32.184c0,5.077,1.766,7.616,5.299,7.616c1.796,0,3.128-0.617,3.996-1.851s1.303-3.155,1.303-5.766
		c0-2.623-0.44-4.56-1.32-5.811c-0.88-1.252-2.194-1.877-3.942-1.877C158.695,24.496,156.917,27.059,156.917,32.184z"/>
	<path fill="#C4C0B5" d="M186.539,45.35h-6.987V19.089h15.52v5.694h-8.532v5.012h7.868v5.693h-7.868V45.35z"/>
	<path fill="#C4C0B5" d="M255.677,43.705c0,3.258-0.826,6.149-2.479,8.676c-1.652,2.527-4.035,4.491-7.148,5.892
		c-3.113,1.401-6.766,2.102-10.957,2.102c-3.497,0-6.431-0.245-8.802-0.736s-4.838-1.347-7.4-2.568V44.424
		c2.706,1.389,5.521,2.473,8.442,3.251s5.604,1.168,8.047,1.168c2.107,0,3.652-0.365,4.635-1.096c0.981-0.73,1.473-1.671,1.473-2.82
		c0-0.719-0.197-1.347-0.593-1.886s-1.03-1.084-1.904-1.635s-3.203-1.677-6.987-3.377c-3.425-1.557-5.993-3.065-7.705-4.526
		c-1.713-1.461-2.982-3.138-3.809-5.029c-0.826-1.893-1.239-4.132-1.239-6.719c0-4.837,1.761-8.609,5.281-11.315
		c3.521-2.707,8.358-4.06,14.513-4.06c5.438,0,10.981,1.257,16.634,3.771l-4.347,10.957c-4.91-2.251-9.149-3.377-12.718-3.377
		c-1.844,0-3.186,0.323-4.023,0.97c-0.839,0.647-1.258,1.449-1.258,2.407c0,1.03,0.533,1.952,1.599,2.767
		c1.066,0.814,3.958,2.299,8.676,4.454c4.527,2.036,7.67,4.222,9.431,6.557S255.677,40.161,255.677,43.705z"/>
	<path fill="#C4C0B5" d="M299.272,39.215c0,6.658-1.79,11.849-5.371,15.573c-3.58,3.724-8.592,5.586-15.034,5.586
		c-6.18,0-11.095-1.903-14.747-5.712c-3.652-3.808-5.479-8.957-5.479-15.447c0-6.635,1.79-11.789,5.37-15.466
		c3.581-3.676,8.604-5.515,15.07-5.515c4,0,7.532,0.851,10.599,2.551c3.065,1.7,5.431,4.138,7.095,7.311
		C298.439,31.27,299.272,34.976,299.272,39.215z M272.903,39.215c0,3.496,0.467,6.161,1.401,7.993
		c0.934,1.832,2.503,2.748,4.706,2.748c2.18,0,3.718-0.916,4.616-2.748s1.348-4.497,1.348-7.993c0-3.473-0.455-6.096-1.365-7.867
		c-0.91-1.772-2.467-2.659-4.671-2.659c-2.155,0-3.7,0.881-4.634,2.641C273.37,33.09,272.903,35.718,272.903,39.215z"/>
	<path fill="#C4C0B5" d="M354.194,59.656v-22.13c0-2.755-0.378-4.82-1.132-6.197c-0.755-1.377-1.946-2.065-3.574-2.065
		c-2.156,0-3.736,0.922-4.742,2.766c-1.006,1.845-1.509,4.73-1.509,8.658v18.969h-14.083v-22.13c0-2.755-0.359-4.82-1.077-6.197
		c-0.719-1.377-1.881-2.065-3.485-2.065c-2.203,0-3.808,0.981-4.813,2.945s-1.509,5.174-1.509,9.628v17.819h-14.047V18.953h10.598
		l1.761,5.029h0.826c1.077-1.868,2.641-3.293,4.688-4.274c2.047-0.982,4.377-1.474,6.987-1.474c5.867,0,9.986,1.784,12.357,5.354
		h1.114c1.149-1.677,2.748-2.988,4.796-3.935c2.048-0.945,4.305-1.419,6.771-1.419c4.813,0,8.37,1.233,10.67,3.7
		c2.299,2.467,3.448,6.216,3.448,11.245v26.477H354.194z"/>
	<path fill="#C4C0B5" d="M394.247,60.374c-6.778,0-12.041-1.802-15.789-5.406s-5.622-8.735-5.622-15.394
		c0-6.874,1.736-12.148,5.209-15.825c3.473-3.676,8.431-5.515,14.873-5.515c6.131,0,10.867,1.599,14.208,4.796
		s5.012,7.802,5.012,13.813v6.251h-25.111c0.096,2.275,0.928,4.06,2.497,5.353c1.568,1.293,3.706,1.939,6.412,1.939
		c2.467,0,4.736-0.232,6.808-0.7c2.071-0.467,4.317-1.263,6.736-2.389v10.095c-2.204,1.126-4.479,1.904-6.826,2.335
		C400.307,60.159,397.504,60.374,394.247,60.374z M393.421,27.791c-1.652,0-3.036,0.521-4.149,1.562s-1.767,2.676-1.958,4.903
		h12.071c-0.049-1.964-0.605-3.532-1.671-4.706S395.217,27.791,393.421,27.791z"/>
	<path fill="#C4C0B5" d="M437.027,49.273c1.892,0,4.155-0.467,6.79-1.4v10.238c-1.893,0.814-3.694,1.395-5.407,1.742
		c-1.712,0.348-3.718,0.521-6.018,0.521c-4.718,0-8.118-1.155-10.202-3.467c-2.084-2.311-3.126-5.861-3.126-10.651V29.479h-4.921
		v-5.712l6.251-4.419l3.628-8.551h9.196v8.155h9.987v10.526h-9.987v15.843C433.219,47.956,434.488,49.273,437.027,49.273z"/>
	<path fill="#C4C0B5" d="M474.337,59.656V37.454c0-5.46-1.616-8.19-4.85-8.19c-2.299,0-3.993,0.964-5.083,2.892
		c-1.09,1.929-1.635,5.132-1.635,9.61v17.891h-14.047V3.757h14.047v7.939c0,3.593-0.191,7.688-0.575,12.286h0.646
		c1.342-2.107,2.935-3.592,4.778-4.454s3.987-1.294,6.431-1.294c4.55,0,8.089,1.312,10.615,3.934
		c2.527,2.623,3.79,6.293,3.79,11.012v26.477H474.337z"/>
	<path fill="#C4C0B5" d="M494.612,8.822c0-2.107,0.587-3.676,1.761-4.706s3.065-1.545,5.676-1.545s4.515,0.527,5.712,1.581
		c1.198,1.054,1.797,2.61,1.797,4.67c0,4.119-2.503,6.18-7.509,6.18C497.092,15.002,494.612,12.941,494.612,8.822z M509.019,59.656
		h-14.047V18.953h14.047V59.656z"/>
	<path fill="#C4C0B5" d="M541.474,59.656V37.454c0-2.706-0.39-4.748-1.168-6.125s-2.029-2.065-3.754-2.065
		c-2.371,0-4.083,0.946-5.138,2.838c-1.054,1.893-1.58,5.138-1.58,9.735v17.819h-14.047V18.953h10.598l1.761,5.029h0.826
		c1.197-1.916,2.856-3.353,4.976-4.311s4.557-1.438,7.311-1.438c4.503,0,8.005,1.306,10.508,3.916s3.754,6.287,3.754,11.029v26.477
		H541.474z"/>
	<path fill="#C4C0B5" d="M600.109,18.953v6.79l-5.568,2.048c0.767,1.389,1.149,3.006,1.149,4.85c0,4.383-1.538,7.783-4.616,10.202
		c-3.077,2.419-7.67,3.629-13.777,3.629c-1.509,0-2.706-0.096-3.592-0.288c-0.336,0.623-0.503,1.21-0.503,1.761
		c0,0.694,0.562,1.228,1.688,1.599c1.125,0.371,2.599,0.557,4.418,0.557h6.754c9.125,0,13.688,3.844,13.688,11.532
		c0,4.957-2.113,8.813-6.341,11.567c-4.227,2.754-10.16,4.132-17.801,4.132c-5.771,0-10.22-0.964-13.346-2.893
		c-3.125-1.928-4.688-4.7-4.688-8.316c0-4.861,3.018-7.999,9.054-9.412c-1.246-0.526-2.329-1.377-3.251-2.551
		c-0.923-1.173-1.384-2.335-1.384-3.484c0-1.27,0.348-2.39,1.042-3.359s2.144-2.125,4.347-3.467
		c-2.107-0.934-3.766-2.395-4.976-4.383c-1.209-1.987-1.814-4.406-1.814-7.257c0-4.431,1.51-7.867,4.527-10.31
		c3.018-2.443,7.328-3.665,12.933-3.665c0.742,0,2.023,0.084,3.844,0.252s3.161,0.323,4.023,0.467H600.109z M569.43,64.721
		c0,1.15,0.623,2.078,1.868,2.785c1.245,0.706,2.91,1.06,4.993,1.06c3.401,0,6.125-0.426,8.173-1.275
		c2.048-0.851,3.072-1.946,3.072-3.287c0-1.078-0.623-1.839-1.868-2.281c-1.246-0.443-3.03-0.665-5.354-0.665h-5.496
		c-1.509,0-2.784,0.354-3.826,1.061C569.951,62.823,569.43,63.691,569.43,64.721z M573.849,32.281c0,4.167,1.449,6.251,4.347,6.251
		c1.341,0,2.377-0.515,3.107-1.545s1.096-2.574,1.096-4.634c0-4.216-1.401-6.323-4.203-6.323
		C575.298,26.03,573.849,28.114,573.849,32.281z"/>
</g>
<rect x="150.674" y="54.833" fill="#C4C0B5" width="44.962" height="6.131"/>
</svg>
